<svg id="visual" viewBox="0 0 900 600" width="900" height="600" xmlns="http://www.w3.org/2000/svg" xmlns:xlink="http://www.w3.org/1999/xlink" version="1.1"><path d="M0 463L15 451.8C30 440.7 60 418.3 90 415C120 411.7 150 427.3 180 425.8C210 424.3 240 405.7 270 405.7C300 405.7 330 424.3 360 424.3C390 424.3 420 405.7 450 403.8C480 402 510 417 540 426.2C570 435.3 600 438.7 630 439.8C660 441 690 440 720 437.2C750 434.3 780 429.7 810 423.3C840 417 870 409 885 405L900 401L900 601L885 601C870 601 840 601 810 601C780 601 750 601 720 601C690 601 660 601 630 601C600 601 570 601 540 601C510 601 480 601 450 601C420 601 390 601 360 601C330 601 300 601 270 601C240 601 210 601 180 601C150 601 120 601 90 601C60 601 30 601 15 601L0 601Z" fill="#833ab4"></path><path d="M0 459L15 459.5C30 460 60 461 90 464.5C120 468 150 474 180 477.8C210 481.7 240 483.3 270 473.7C300 464 330 443 360 437.7C390 432.3 420 442.7 450 446.7C480 450.7 510 448.3 540 453C570 457.7 600 469.3 630 474.3C660 479.3 690 477.7 720 473.7C750 469.7 780 463.3 810 459.8C840 456.3 870 455.7 885 455.3L900 455L900 601L885 601C870 601 840 601 810 601C780 601 750 601 720 601C690 601 660 601 630 601C600 601 570 601 540 601C510 601 480 601 450 601C420 601 390 601 360 601C330 601 300 601 270 601C240 601 210 601 180 601C150 601 120 601 90 601C60 601 30 601 15 601L0 601Z" fill="#c42f9d"></path><path d="M0 451L15 456C30 461 60 471 90 476.2C120 481.3 150 481.7 180 482C210 482.3 240 482.7 270 485.3C300 488 330 493 360 489.2C390 485.3 420 472.7 450 474.7C480 476.7 510 493.3 540 502.3C570 511.3 600 512.7 630 513C660 513.3 690 512.7 720 508.2C750 503.7 780 495.3 810 493.2C840 491 870 495 885 497L900 499L900 601L885 601C870 601 840 601 810 601C780 601 750 601 720 601C690 601 660 601 630 601C600 601 570 601 540 601C510 601 480 601 450 601C420 601 390 601 360 601C330 601 300 601 270 601C240 601 210 601 180 601C150 601 120 601 90 601C60 601 30 601 15 601L0 601Z" fill="#ec3c81"></path><path d="M0 521L15 516.3C30 511.7 60 502.3 90 498.8C120 495.3 150 497.7 180 499.7C210 501.7 240 503.3 270 502.3C300 501.3 330 497.7 360 498.8C390 500 420 506 450 507.5C480 509 510 506 540 504.7C570 503.3 600 503.7 630 504.7C660 505.7 690 507.3 720 503.7C750 500 780 491 810 493.5C840 496 870 510 885 517L900 524L900 601L885 601C870 601 840 601 810 601C780 601 750 601 720 601C690 601 660 601 630 601C600 601 570 601 540 601C510 601 480 601 450 601C420 601 390 601 360 601C330 601 300 601 270 601C240 601 210 601 180 601C150 601 120 601 90 601C60 601 30 601 15 601L0 601Z" fill="#ff5f64"></path><path d="M0 524L15 525.7C30 527.3 60 530.7 90 529.7C120 528.7 150 523.3 180 524.7C210 526 240 534 270 539.2C300 544.3 330 546.7 360 548.2C390 549.7 420 550.3 450 547.8C480 545.3 510 539.7 540 540.8C570 542 600 550 630 547.5C660 545 690 532 720 528.3C750 524.7 780 530.3 810 530.5C840 530.7 870 525.3 885 522.7L900 520L900 601L885 601C870 601 840 601 810 601C780 601 750 601 720 601C690 601 660 601 630 601C600 601 570 601 540 601C510 601 480 601 450 601C420 601 390 601 360 601C330 601 300 601 270 601C240 601 210 601 180 601C150 601 120 601 90 601C60 601 30 601 15 601L0 601Z" fill="#ff884e"></path><path d="M0 560L15 557.7C30 555.3 60 550.7 90 549C120 547.3 150 548.7 180 550C210 551.3 240 552.7 270 557.8C300 563 330 572 360 576.5C390 581 420 581 450 575.3C480 569.7 510 558.3 540 558.3C570 558.3 600 569.7 630 573.3C660 577 690 573 720 568.8C750 564.7 780 560.3 810 556.5C840 552.7 870 549.3 885 547.7L900 546L900 601L885 601C870 601 840 601 810 601C780 601 750 601 720 601C690 601 660 601 630 601C600 601 570 601 540 601C510 601 480 601 450 601C420 601 390 601 360 601C330 601 300 601 270 601C240 601 210 601 180 601C150 601 120 601 90 601C60 601 30 601 15 601L0 601Z" fill="#fcb045"></path></svg>